<svg width="44" height="44" viewBox="0 0 44 44" fill="none" xmlns="http://www.w3.org/2000/svg">
<path d="M12.9005 11C12.4016 11 12 11.4292 12 11.9624V21.0376C12 21.5708 12.4016 22 12.9005 22H31.0995C31.5984 22 32 21.5708 32 21.0376V11.9624C32 11.4292 31.5984 11 31.0995 11H12.9005ZM14.9718 13.0567C14.9747 13.0567 14.9776 13.0567 14.9805 13.0567C15.1377 13.0573 15.2882 13.1243 15.3993 13.243L16.6856 14.6176C16.9181 14.8662 16.9181 15.2692 16.6856 15.5178L15.304 16.9947C15.1923 17.1141 15.0408 17.1812 14.8827 17.1812C14.7247 17.1812 14.5732 17.1141 14.4615 16.9947C14.3497 16.8753 14.2869 16.7133 14.2869 16.5445C14.2869 16.3756 14.3497 16.2136 14.4615 16.0942L15.4219 15.0678L14.557 14.1432C14.3244 13.8946 14.3244 13.4916 14.557 13.243C14.6671 13.1253 14.8161 13.0585 14.9718 13.0567ZM18.6011 15.908H23.6008C23.9297 15.9079 24.1964 16.1927 24.1966 16.5442C24.1966 16.7131 24.1338 16.8751 24.0221 16.9945C23.9104 17.1139 23.7588 17.181 23.6008 17.1809H18.6011C18.4431 17.181 18.2916 17.1139 18.1798 16.9945C18.0681 16.8751 18.0053 16.7131 18.0053 16.5442C18.0055 16.1927 18.2722 15.9079 18.6011 15.908Z" fill="#E2E5EC"/>
<path d="M17.6284 19C17.2836 19.0001 17.0041 19.266 17.0041 19.5941V27.1551H15.0326C14.7655 26.3634 13.9814 25.7837 13.0653 25.7837C11.932 25.7837 11 26.6706 11 27.749C11 28.8275 11.932 29.7146 13.0653 29.7146C13.9813 29.7146 14.7654 29.135 15.0326 28.3434H17.6284C17.9734 28.3434 18.2528 28.0772 18.2528 27.749V19.5941C18.2528 19.2659 17.9734 19 17.6284 19ZM13.0653 26.9721C13.5237 26.9721 13.8817 27.3128 13.8817 27.749C13.8817 28.1852 13.5237 28.5264 13.0653 28.5264C12.607 28.5264 12.2489 28.1852 12.2489 27.749C12.2489 27.3128 12.607 26.9721 13.0653 26.9721ZM26.3715 19C26.7163 19.0001 26.9959 19.266 26.9959 19.5941V27.1551H28.9674C29.2345 26.3634 30.0186 25.7837 30.9347 25.7837C32.068 25.7837 33 26.6706 33 27.749C33 28.8275 32.068 29.7146 30.9347 29.7146C30.0187 29.7146 29.2346 29.135 28.9674 28.3434H26.3715C26.0267 28.3434 25.7472 28.0772 25.7472 27.749V19.5941C25.7472 19.2659 26.0267 19 26.3715 19ZM30.9347 26.9721C30.4763 26.9721 30.1182 27.3128 30.1182 27.749C30.1182 28.1852 30.4763 28.5264 30.9347 28.5264C31.393 28.5264 31.7511 28.1852 31.7511 27.749C31.7511 27.3128 31.393 26.9721 30.9347 26.9721ZM22 21.2854C22.3449 21.2854 22.6245 21.5512 22.6246 21.8793V28.1628C23.4564 28.4172 24.0654 29.1631 24.0654 30.0347C24.0654 31.1131 23.1333 32 22 32C20.8667 32 19.9345 31.1131 19.9345 30.0347C19.9345 29.1631 20.5437 28.4172 21.3755 28.1628V21.8793C21.3756 21.5512 21.6552 21.2854 22 21.2854ZM22 29.2575C21.5417 29.2575 21.1836 29.5985 21.1836 30.0347C21.1836 30.4708 21.5417 30.8118 22 30.8118C22.4584 30.8118 22.8165 30.4708 22.8165 30.0347C22.8165 29.5985 22.4584 29.2575 22 29.2575Z" fill="#E2E5EC"/>
<rect x="0.5" y="0.5" width="43" height="43" rx="21.5" stroke="#E2E5EC" stroke-opacity="0.3"/>
</svg>
