<svg width="44" height="44" viewBox="0 0 44 44" fill="none" xmlns="http://www.w3.org/2000/svg">
<path d="M18.7888 28V30.2814H15.6117C15.2738 30.2815 15 30.6662 15 31.1407C14.9999 31.6151 15.2738 31.9998 15.6117 32H18.7888H25.2065H28.388C28.5503 32 28.706 31.9094 28.8208 31.7484C28.9355 31.5871 29 31.3686 29 31.1407C29 30.9127 28.9355 30.694 28.8208 30.533C28.706 30.3717 28.5503 30.2814 28.388 30.2814H25.2065V28H18.7888Z" fill="#E2E5EC"/>
<path d="M12.5538 12C11.704 12 11 12.682 11 13.5053V25.4956C11 26.3188 11.704 27 12.5538 27H31.4471C32.2968 27 33 26.3188 33 25.4956V13.5053C33 12.682 32.2968 12 31.4471 12H12.5538ZM12.5538 13.1983H31.4471C31.633 13.1983 31.7631 13.3251 31.7631 13.5053V25.4956C31.7631 25.6758 31.633 25.8026 31.4471 25.8026H12.5538C12.3678 25.8026 12.2369 25.6758 12.2369 25.4956V13.5053C12.2369 13.3251 12.3678 13.1983 12.5538 13.1983ZM22.607 16.3874C22.4738 16.3935 22.3461 16.4412 22.2431 16.5233C22.1401 16.6055 22.0673 16.7177 22.0356 16.8432L20.7635 21.8719C20.7442 21.9483 20.7406 22.0277 20.7529 22.1055C20.7653 22.1833 20.7933 22.258 20.8355 22.3253C20.8776 22.3926 20.933 22.4511 20.9986 22.4977C21.0641 22.5442 21.1385 22.5778 21.2174 22.5964C21.3766 22.634 21.5448 22.6088 21.6849 22.5264C21.8249 22.4439 21.9255 22.311 21.9644 22.1568L23.2365 17.129C23.2756 16.9747 23.2498 16.8117 23.1648 16.6758C23.0799 16.54 22.9427 16.4423 22.7835 16.4044C22.7258 16.3906 22.6664 16.3848 22.607 16.3874ZM19.4362 17.6443C19.2728 17.645 19.1162 17.7083 19.0008 17.8204L17.6656 19.1139C17.5497 19.2262 17.4846 19.3786 17.4846 19.5374C17.4846 19.6963 17.5497 19.8486 17.6656 19.9609L19.1 21.3505C19.216 21.4628 19.3732 21.5259 19.5372 21.5259C19.7011 21.5259 19.8584 21.4628 19.9743 21.3505C20.0903 21.2382 20.1554 21.0859 20.1554 20.927C20.1554 20.7682 20.0903 20.6159 19.9743 20.5035L18.9771 19.5374L19.8751 18.6674C19.9911 18.5551 20.0562 18.4027 20.0562 18.2439C20.0562 18.0851 19.9911 17.9327 19.8751 17.8204C19.8176 17.7645 19.7492 17.7201 19.6738 17.6899C19.5985 17.6597 19.5177 17.6442 19.4362 17.6443ZM24.5603 17.6443C24.3968 17.645 24.2403 17.7083 24.1249 17.8204C24.0089 17.9327 23.9438 18.0851 23.9438 18.2439C23.9438 18.4027 24.0089 18.5551 24.1249 18.6674L25.0229 19.5374L24.0257 20.5035C23.9097 20.6159 23.8446 20.7682 23.8446 20.927C23.8446 21.0859 23.9097 21.2382 24.0257 21.3505C24.1416 21.4628 24.2989 21.5259 24.4628 21.5259C24.6268 21.5259 24.784 21.4628 24.9 21.3505L26.3344 19.9609C26.4503 19.8486 26.5154 19.6963 26.5154 19.5374C26.5154 19.3786 26.4503 19.2262 26.3344 19.1139L24.9992 17.8204C24.9416 17.7645 24.8732 17.7201 24.7979 17.6899C24.7226 17.6597 24.6418 17.6442 24.5603 17.6443Z" fill="#E2E5EC"/>
<rect x="0.5" y="0.5" width="43" height="43" rx="21.5" stroke="#E2E5EC" stroke-opacity="0.3"/>
</svg>
