<svg width="785" height="734" viewBox="0 0 785 734" fill="none" xmlns="http://www.w3.org/2000/svg">
<path d="M-41.1189 375.704C-41.2167 375.932 -41.0578 376.171 -40.7641 376.238C-40.4703 376.304 -40.1529 376.173 -40.0551 375.944L-41.1189 375.704ZM51.1775 303.139L51.3997 303.527L51.1775 303.139ZM154.147 295.232L154.208 294.802L154.147 295.232ZM339.85 323.156L339.66 323.567L339.85 323.156ZM632.756 366.202L632.827 366.627L632.756 366.202ZM732.677 334.904L732.309 334.591L732.677 334.904ZM767.611 305.93C767.594 305.693 767.329 305.519 767.02 305.542L761.982 305.908C761.673 305.93 761.436 306.141 761.453 306.378C761.471 306.615 761.735 306.788 762.044 306.766L766.523 306.441L766.772 309.873C766.789 310.109 767.054 310.283 767.363 310.261C767.672 310.238 767.909 310.028 767.891 309.791L767.611 305.93ZM-40.0551 375.944C-26.2121 343.588 12.0352 317.759 51.3997 303.527L50.9552 302.75C11.4113 317.046 -27.1417 343.034 -41.1189 375.704L-40.0551 375.944ZM51.3997 303.527C83.0284 292.093 119.209 293.786 154.087 295.662L154.208 294.802C119.387 292.929 82.9011 291.201 50.9552 302.75L51.3997 303.527ZM154.087 295.662C216.827 299.038 279.325 308.644 339.66 323.567L340.041 322.745C279.628 307.803 217.043 298.183 154.208 294.802L154.087 295.662ZM339.66 323.567C387.964 335.514 435.598 349.592 483.935 359.02C532.294 368.451 581.431 373.246 632.827 366.627L632.684 365.777C581.498 372.369 532.527 367.599 484.251 358.184C435.954 348.764 388.426 334.713 340.041 322.745L339.66 323.567ZM632.827 366.627C667.91 362.109 706.495 353.784 733.046 335.218L732.309 334.591C706.024 352.971 667.727 361.264 632.684 365.777L632.827 366.627ZM733.046 335.218C745.647 326.407 756.409 316.073 767.469 306.245L766.633 305.696C755.532 315.56 744.841 325.828 732.309 334.591L733.046 335.218Z" fill="url(#paint0_linear_4_1573)"/>
<path d="M-48.1189 401.704C-48.2167 401.932 -48.0578 402.171 -47.7641 402.238C-47.4703 402.304 -47.1529 402.172 -47.0551 401.944L-48.1189 401.704ZM44.1775 329.138L44.3997 329.527L44.1775 329.138ZM147.147 321.232L147.208 320.802L147.147 321.232ZM332.85 349.156L332.66 349.566L332.85 349.156ZM625.756 392.202L625.827 392.627L625.756 392.202ZM725.677 360.904L725.309 360.59L725.677 360.904ZM760.611 331.93C760.594 331.693 760.329 331.519 760.02 331.542L754.982 331.908C754.673 331.93 754.436 332.14 754.453 332.377C754.471 332.614 754.735 332.788 755.044 332.766L759.523 332.44L759.772 335.872C759.789 336.109 760.054 336.283 760.363 336.261C760.672 336.238 760.909 336.028 760.891 335.791L760.611 331.93ZM-47.0551 401.944C-33.2121 369.588 5.03524 343.759 44.3997 329.527L43.9552 328.75C4.41134 343.046 -34.1417 369.034 -48.1189 401.704L-47.0551 401.944ZM44.3997 329.527C76.0284 318.092 112.209 319.785 147.087 321.662L147.208 320.802C112.387 318.929 75.9011 317.2 43.9552 328.75L44.3997 329.527ZM147.087 321.662C209.827 325.037 272.325 334.643 332.66 349.566L333.041 348.745C272.628 333.803 210.043 324.183 147.208 320.802L147.087 321.662ZM332.66 349.566C380.964 361.514 428.598 375.592 476.935 385.019C525.294 394.451 574.431 399.246 625.827 392.627L625.684 391.777C574.498 398.369 525.527 393.599 477.251 384.183C428.954 374.764 381.426 360.713 333.041 348.745L332.66 349.566ZM625.827 392.627C660.91 388.109 699.495 379.784 726.046 361.218L725.309 360.59C699.024 378.971 660.727 387.264 625.684 391.777L625.827 392.627ZM726.046 361.218C738.647 352.406 749.409 342.072 760.469 332.245L759.633 331.696C748.532 341.56 737.841 351.827 725.309 360.59L726.046 361.218Z" fill="url(#paint1_linear_4_1573)"/>
<path d="M-48.1184 456.704C-48.2162 456.932 -48.0573 457.171 -47.7636 457.238C-47.4698 457.304 -47.1524 457.172 -47.0546 456.944L-48.1184 456.704ZM44.178 384.138L44.4002 384.527L44.178 384.138ZM147.148 376.232L147.209 375.802L147.148 376.232ZM332.851 404.156L332.66 404.566L332.851 404.156ZM625.756 447.202L625.828 447.627L625.756 447.202ZM725.678 415.904L725.309 415.59L725.678 415.904ZM760.611 386.93C760.594 386.693 760.33 386.519 760.02 386.542L754.983 386.908C754.673 386.93 754.437 387.14 754.454 387.377C754.471 387.614 754.736 387.788 755.045 387.766L759.523 387.44L759.772 390.872C759.79 391.109 760.054 391.283 760.363 391.261C760.672 391.238 760.909 391.028 760.892 390.791L760.611 386.93ZM-47.0546 456.944C-33.2117 424.588 5.03573 398.759 44.4002 384.527L43.9557 383.75C4.41183 398.046 -34.1412 424.034 -48.1184 456.704L-47.0546 456.944ZM44.4002 384.527C76.0289 373.092 112.21 374.785 147.087 376.662L147.209 375.802C112.388 373.929 75.9015 372.2 43.9557 383.75L44.4002 384.527ZM147.087 376.662C209.828 380.037 272.326 389.643 332.66 404.566L333.041 403.745C272.629 388.803 210.044 379.183 147.209 375.802L147.087 376.662ZM332.66 404.566C380.965 416.514 428.598 430.592 476.936 440.019C525.294 449.451 574.431 454.246 625.828 447.627L625.685 446.777C574.498 453.369 525.527 448.599 477.251 439.183C428.954 429.764 381.427 415.713 333.041 403.745L332.66 404.566ZM625.828 447.627C660.91 443.109 699.495 434.784 726.046 416.218L725.309 415.59C699.024 433.971 660.728 442.264 625.685 446.777L625.828 447.627ZM726.046 416.218C738.647 407.406 749.41 397.072 760.469 387.245L759.634 386.696C748.533 396.56 737.841 406.827 725.309 415.59L726.046 416.218Z" fill="url(#paint2_linear_4_1573)"/>
<path d="M-50.762 428.757C-50.8598 428.985 -50.7009 429.224 -50.4072 429.291C-50.1134 429.357 -49.7959 429.226 -49.6982 428.997L-50.762 428.757ZM41.5344 356.192L41.7566 356.58L41.5344 356.192ZM144.504 348.285L144.565 347.855L144.504 348.285ZM330.207 376.209L330.017 376.62L330.207 376.209ZM623.113 419.255L623.184 419.68L623.113 419.255ZM723.034 387.957L722.666 387.644L723.034 387.957ZM757.968 358.983C757.951 358.746 757.686 358.572 757.377 358.595L752.339 358.961C752.03 358.983 751.793 359.194 751.81 359.431C751.828 359.668 752.092 359.841 752.401 359.819L756.879 359.493L757.129 362.925C757.146 363.162 757.411 363.336 757.72 363.314C758.029 363.291 758.266 363.081 758.248 362.844L757.968 358.983ZM-49.6982 428.997C-35.8552 396.641 2.39218 370.812 41.7566 356.58L41.3122 355.803C1.76827 370.099 -36.7848 396.087 -50.762 428.757L-49.6982 428.997ZM41.7566 356.58C73.3853 345.146 109.566 346.839 144.444 348.715L144.565 347.855C109.744 345.982 73.258 344.254 41.3122 355.803L41.7566 356.58ZM144.444 348.715C207.184 352.091 269.682 361.697 330.017 376.62L330.398 375.798C269.985 360.856 207.4 351.236 144.565 347.855L144.444 348.715ZM330.017 376.62C378.321 388.567 425.955 402.645 474.292 412.072C522.651 421.504 571.788 426.299 623.184 419.68L623.041 418.83C571.855 425.422 522.884 420.652 474.607 411.237C426.311 401.817 378.783 387.766 330.398 375.798L330.017 376.62ZM623.184 419.68C658.266 415.162 696.852 406.837 723.403 388.271L722.666 387.644C696.381 406.024 658.084 414.317 623.041 418.83L623.184 419.68ZM723.403 388.271C736.004 379.46 746.766 369.126 757.826 359.298L756.99 358.749C745.889 368.613 735.198 378.881 722.666 387.644L723.403 388.271Z" fill="url(#paint3_linear_4_1573)"/>
<defs>
<linearGradient id="paint0_linear_4_1573" x1="553.8" y1="165.836" x2="278.165" y2="585.286" gradientUnits="userSpaceOnUse">
<stop stop-color="white" stop-opacity="0"/>
<stop offset="1" stop-color="white" stop-opacity="0.58"/>
</linearGradient>
<linearGradient id="paint1_linear_4_1573" x1="546.8" y1="191.836" x2="271.165" y2="611.286" gradientUnits="userSpaceOnUse">
<stop stop-color="white" stop-opacity="0"/>
<stop offset="1" stop-color="white" stop-opacity="0.58"/>
</linearGradient>
<linearGradient id="paint2_linear_4_1573" x1="546.8" y1="246.836" x2="271.165" y2="666.286" gradientUnits="userSpaceOnUse">
<stop stop-color="white" stop-opacity="0"/>
<stop offset="1" stop-color="white" stop-opacity="0.58"/>
</linearGradient>
<linearGradient id="paint3_linear_4_1573" x1="544.157" y1="218.889" x2="268.522" y2="638.339" gradientUnits="userSpaceOnUse">
<stop stop-color="white" stop-opacity="0"/>
<stop offset="1" stop-color="white" stop-opacity="0.58"/>
</linearGradient>
</defs>
</svg>
