<svg width="193" height="155" viewBox="0 0 193 155" fill="none" xmlns="http://www.w3.org/2000/svg">
<circle cx="26.5" cy="10.5" r="4" fill="#D9D9D9" fill-opacity="0.5"/>
<circle cx="46.5" cy="10.5" r="4" fill="#D9D9D9" fill-opacity="0.5"/>
<circle cx="26.5" cy="30.5" r="4" fill="#D9D9D9" fill-opacity="0.5"/>
<circle cx="46.5" cy="30.5" r="4" fill="#D9D9D9" fill-opacity="0.5"/>
<circle cx="66.5" cy="10.5" r="4" fill="#D9D9D9" fill-opacity="0.5"/>
<circle cx="86.5" cy="10.5" r="4" fill="#D9D9D9" fill-opacity="0.5"/>
<circle cx="66.5" cy="30.5" r="4" fill="#D9D9D9" fill-opacity="0.5"/>
<circle cx="86.5" cy="30.5" r="4" fill="#D9D9D9" fill-opacity="0.5"/>
<circle cx="106.5" cy="10.5" r="4" fill="#D9D9D9" fill-opacity="0.5"/>
<circle cx="126.5" cy="10.5" r="4" fill="#D9D9D9" fill-opacity="0.5"/>
<circle cx="106.5" cy="30.5" r="4" fill="#D9D9D9" fill-opacity="0.5"/>
<circle cx="126.5" cy="30.5" r="4" fill="#D9D9D9" fill-opacity="0.5"/>
<circle cx="146.5" cy="10.5" r="4" fill="#D9D9D9" fill-opacity="0.5"/>
<circle cx="166.5" cy="10.5" r="4" fill="#D9D9D9" fill-opacity="0.5"/>
<circle cx="146.5" cy="30.5" r="4" fill="#D9D9D9" fill-opacity="0.5"/>
<circle cx="166.5" cy="30.5" r="4" fill="#D9D9D9" fill-opacity="0.5"/>
<circle cx="26.5" cy="48.5" r="4" fill="#D9D9D9" fill-opacity="0.5"/>
<circle cx="46.5" cy="48.5" r="4" fill="#D9D9D9" fill-opacity="0.5"/>
<circle cx="26.5" cy="68.5" r="4" fill="#D9D9D9" fill-opacity="0.5"/>
<circle cx="46.5" cy="68.5" r="4" fill="#D9D9D9" fill-opacity="0.5"/>
<circle cx="66.5" cy="48.5" r="4" fill="#D9D9D9" fill-opacity="0.5"/>
<circle cx="86.5" cy="48.5" r="4" fill="#D9D9D9" fill-opacity="0.5"/>
<circle cx="66.5" cy="68.5" r="4" fill="#D9D9D9" fill-opacity="0.5"/>
<circle cx="86.5" cy="68.5" r="4" fill="#D9D9D9" fill-opacity="0.5"/>
<circle cx="106.5" cy="48.5" r="4" fill="#D9D9D9" fill-opacity="0.5"/>
<circle cx="126.5" cy="48.5" r="4" fill="#D9D9D9" fill-opacity="0.5"/>
<circle cx="106.5" cy="68.5" r="4" fill="#D9D9D9" fill-opacity="0.5"/>
<circle cx="126.5" cy="68.5" r="4" fill="#D9D9D9" fill-opacity="0.5"/>
<circle cx="146.5" cy="48.5" r="4" fill="#D9D9D9" fill-opacity="0.5"/>
<circle cx="166.5" cy="48.5" r="4" fill="#D9D9D9" fill-opacity="0.5"/>
<circle cx="146.5" cy="68.5" r="4" fill="#D9D9D9" fill-opacity="0.5"/>
<circle cx="166.5" cy="68.5" r="4" fill="#D9D9D9" fill-opacity="0.5"/>
<circle cx="26.5" cy="86.5" r="4" fill="#D9D9D9" fill-opacity="0.5"/>
<circle cx="46.5" cy="86.5" r="4" fill="#D9D9D9" fill-opacity="0.5"/>
<circle cx="26.5" cy="106.5" r="4" fill="#D9D9D9" fill-opacity="0.5"/>
<circle cx="46.5" cy="106.5" r="4" fill="#D9D9D9" fill-opacity="0.5"/>
<circle cx="66.5" cy="86.5" r="4" fill="#D9D9D9" fill-opacity="0.5"/>
<circle cx="86.5" cy="86.5" r="4" fill="#D9D9D9" fill-opacity="0.5"/>
<circle cx="66.5" cy="106.5" r="4" fill="#D9D9D9" fill-opacity="0.5"/>
<circle cx="86.5" cy="106.5" r="4" fill="#D9D9D9" fill-opacity="0.5"/>
<circle cx="106.5" cy="86.5" r="4" fill="#D9D9D9" fill-opacity="0.5"/>
<circle cx="126.5" cy="86.5" r="4" fill="#D9D9D9" fill-opacity="0.5"/>
<circle cx="106.5" cy="106.5" r="4" fill="#D9D9D9" fill-opacity="0.5"/>
<circle cx="126.5" cy="106.5" r="4" fill="#D9D9D9" fill-opacity="0.5"/>
<circle cx="146.5" cy="86.5" r="4" fill="#D9D9D9" fill-opacity="0.5"/>
<circle cx="166.5" cy="86.5" r="4" fill="#D9D9D9" fill-opacity="0.5"/>
<circle cx="146.5" cy="106.5" r="4" fill="#D9D9D9" fill-opacity="0.5"/>
<circle cx="166.5" cy="106.5" r="4" fill="#D9D9D9" fill-opacity="0.5"/>
<circle cx="26.5" cy="124.5" r="4" fill="#D9D9D9" fill-opacity="0.5"/>
<circle cx="46.5" cy="124.5" r="4" fill="#D9D9D9" fill-opacity="0.5"/>
<circle cx="26.5" cy="144.5" r="4" fill="#D9D9D9" fill-opacity="0.5"/>
<circle cx="46.5" cy="144.5" r="4" fill="#D9D9D9" fill-opacity="0.5"/>
<circle cx="66.5" cy="124.5" r="4" fill="#D9D9D9" fill-opacity="0.5"/>
<circle cx="86.5" cy="124.5" r="4" fill="#D9D9D9" fill-opacity="0.5"/>
<circle cx="66.5" cy="144.5" r="4" fill="#D9D9D9" fill-opacity="0.5"/>
<circle cx="86.5" cy="144.5" r="4" fill="#D9D9D9" fill-opacity="0.5"/>
<circle cx="106.5" cy="124.5" r="4" fill="#D9D9D9" fill-opacity="0.5"/>
<circle cx="126.5" cy="124.5" r="4" fill="#D9D9D9" fill-opacity="0.5"/>
<circle cx="106.5" cy="144.5" r="4" fill="#D9D9D9" fill-opacity="0.5"/>
<circle cx="126.5" cy="144.5" r="4" fill="#D9D9D9" fill-opacity="0.5"/>
<circle cx="146.5" cy="124.5" r="4" fill="#D9D9D9" fill-opacity="0.5"/>
<circle cx="166.5" cy="124.5" r="4" fill="#D9D9D9" fill-opacity="0.5"/>
<circle cx="146.5" cy="144.5" r="4" fill="#D9D9D9" fill-opacity="0.5"/>
<circle cx="166.5" cy="144.5" r="4" fill="#D9D9D9" fill-opacity="0.5"/>
</svg>
