<svg width="172" height="169" viewBox="0 0 172 169" fill="none" xmlns="http://www.w3.org/2000/svg">
<circle cx="27" cy="25.5" r="4" fill="#D9D9D9" fill-opacity="0.4"/>
<circle cx="43" cy="25.5" r="4" fill="#D9D9D9" fill-opacity="0.4"/>
<circle cx="27" cy="41.5" r="4" fill="#D9D9D9" fill-opacity="0.4"/>
<circle cx="43" cy="41.5" r="4" fill="#D9D9D9" fill-opacity="0.4"/>
<circle cx="61" cy="25.5" r="4" fill="#D9D9D9" fill-opacity="0.4"/>
<circle cx="77" cy="25.5" r="4" fill="#D9D9D9" fill-opacity="0.4"/>
<circle cx="61" cy="41.5" r="4" fill="#D9D9D9" fill-opacity="0.4"/>
<circle cx="77" cy="41.5" r="4" fill="#D9D9D9" fill-opacity="0.4"/>
<circle cx="95" cy="25.5" r="4" fill="#D9D9D9" fill-opacity="0.4"/>
<circle cx="111" cy="25.5" r="4" fill="#D9D9D9" fill-opacity="0.4"/>
<circle cx="95" cy="41.5" r="4" fill="#D9D9D9" fill-opacity="0.4"/>
<circle cx="111" cy="41.5" r="4" fill="#D9D9D9" fill-opacity="0.4"/>
<circle cx="129" cy="25.5" r="4" fill="#D9D9D9" fill-opacity="0.4"/>
<circle cx="145" cy="25.5" r="4" fill="#D9D9D9" fill-opacity="0.4"/>
<circle cx="129" cy="41.5" r="4" fill="#D9D9D9" fill-opacity="0.4"/>
<circle cx="145" cy="41.5" r="4" fill="#D9D9D9" fill-opacity="0.4"/>
<circle cx="27" cy="59.5" r="4" fill="#D9D9D9" fill-opacity="0.4"/>
<circle cx="43" cy="59.5" r="4" fill="#D9D9D9" fill-opacity="0.4"/>
<circle cx="27" cy="75.5" r="4" fill="#D9D9D9" fill-opacity="0.4"/>
<circle cx="43" cy="75.5" r="4" fill="#D9D9D9" fill-opacity="0.4"/>
<circle cx="61" cy="59.5" r="4" fill="#D9D9D9" fill-opacity="0.4"/>
<circle cx="77" cy="59.5" r="4" fill="#D9D9D9" fill-opacity="0.4"/>
<circle cx="61" cy="75.5" r="4" fill="#D9D9D9" fill-opacity="0.4"/>
<circle cx="77" cy="75.5" r="4" fill="#D9D9D9" fill-opacity="0.4"/>
<circle cx="95" cy="59.5" r="4" fill="#D9D9D9" fill-opacity="0.4"/>
<circle cx="111" cy="59.5" r="4" fill="#D9D9D9" fill-opacity="0.4"/>
<circle cx="95" cy="75.5" r="4" fill="#D9D9D9" fill-opacity="0.4"/>
<circle cx="111" cy="75.5" r="4" fill="#D9D9D9" fill-opacity="0.4"/>
<circle cx="129" cy="59.5" r="4" fill="#D9D9D9" fill-opacity="0.4"/>
<circle cx="145" cy="59.5" r="4" fill="#D9D9D9" fill-opacity="0.4"/>
<circle cx="129" cy="75.5" r="4" fill="#D9D9D9" fill-opacity="0.4"/>
<circle cx="145" cy="75.5" r="4" fill="#D9D9D9" fill-opacity="0.4"/>
<circle cx="27" cy="93.5" r="4" fill="#D9D9D9" fill-opacity="0.4"/>
<circle cx="43" cy="93.5" r="4" fill="#D9D9D9" fill-opacity="0.4"/>
<circle cx="27" cy="109.5" r="4" fill="#D9D9D9" fill-opacity="0.4"/>
<circle cx="43" cy="109.5" r="4" fill="#D9D9D9" fill-opacity="0.4"/>
<circle cx="61" cy="93.5" r="4" fill="#D9D9D9" fill-opacity="0.4"/>
<circle cx="77" cy="93.5" r="4" fill="#D9D9D9" fill-opacity="0.4"/>
<circle cx="61" cy="109.5" r="4" fill="#D9D9D9" fill-opacity="0.4"/>
<circle cx="77" cy="109.5" r="4" fill="#D9D9D9" fill-opacity="0.4"/>
<circle cx="95" cy="93.5" r="4" fill="#D9D9D9" fill-opacity="0.4"/>
<circle cx="111" cy="93.5" r="4" fill="#D9D9D9" fill-opacity="0.4"/>
<circle cx="95" cy="109.5" r="4" fill="#D9D9D9" fill-opacity="0.4"/>
<circle cx="111" cy="109.5" r="4" fill="#D9D9D9" fill-opacity="0.4"/>
<circle cx="129" cy="93.5" r="4" fill="#D9D9D9" fill-opacity="0.4"/>
<circle cx="145" cy="93.5" r="4" fill="#D9D9D9" fill-opacity="0.4"/>
<circle cx="129" cy="109.5" r="4" fill="#D9D9D9" fill-opacity="0.4"/>
<circle cx="145" cy="109.5" r="4" fill="#D9D9D9" fill-opacity="0.4"/>
<circle cx="27" cy="127.5" r="4" fill="#D9D9D9" fill-opacity="0.4"/>
<circle cx="43" cy="127.5" r="4" fill="#D9D9D9" fill-opacity="0.4"/>
<circle cx="27" cy="143.5" r="4" fill="#D9D9D9" fill-opacity="0.4"/>
<circle cx="43" cy="143.5" r="4" fill="#D9D9D9" fill-opacity="0.4"/>
<circle cx="61" cy="127.5" r="4" fill="#D9D9D9" fill-opacity="0.4"/>
<circle cx="77" cy="127.5" r="4" fill="#D9D9D9" fill-opacity="0.4"/>
<circle cx="61" cy="143.5" r="4" fill="#D9D9D9" fill-opacity="0.4"/>
<circle cx="77" cy="143.5" r="4" fill="#D9D9D9" fill-opacity="0.4"/>
<circle cx="95" cy="127.5" r="4" fill="#D9D9D9" fill-opacity="0.4"/>
<circle cx="111" cy="127.5" r="4" fill="#D9D9D9" fill-opacity="0.4"/>
<circle cx="95" cy="143.5" r="4" fill="#D9D9D9" fill-opacity="0.4"/>
<circle cx="111" cy="143.5" r="4" fill="#D9D9D9" fill-opacity="0.4"/>
<circle cx="129" cy="127.5" r="4" fill="#D9D9D9" fill-opacity="0.4"/>
<circle cx="145" cy="127.5" r="4" fill="#D9D9D9" fill-opacity="0.4"/>
<circle cx="129" cy="143.5" r="4" fill="#D9D9D9" fill-opacity="0.4"/>
<circle cx="145" cy="143.5" r="4" fill="#D9D9D9" fill-opacity="0.4"/>
</svg>
